<svg width="30" height="30" viewBox="0 0 30 30" fill="none" xmlns="http://www.w3.org/2000/svg">
<g filter="url(#filter0_d_2_864)">
<path d="M6.80161 13.3197L23.4301 5.16846C23.6869 5.04261 23.9574 5.31315 23.8315 5.56988L15.6803 22.1984C15.5652 22.4332 15.2204 22.4216 15.1171 22.1814C14.6016 20.9827 13.3841 18.3763 12.0039 16.9961C10.6237 15.6159 8.01735 14.3984 6.81863 13.8829C6.57836 13.7796 6.56677 13.4348 6.80161 13.3197Z" fill="white"/>
<path d="M6.80161 13.3197L23.4301 5.16846C23.6869 5.04261 23.9574 5.31315 23.8315 5.56988L15.6803 22.1984C15.5652 22.4332 15.2204 22.4216 15.1171 22.1814C14.6016 20.9827 13.3841 18.3763 12.0039 16.9961C10.6237 15.6159 8.01735 14.3984 6.81863 13.8829C6.57836 13.7796 6.56677 13.4348 6.80161 13.3197Z" stroke="black" stroke-width="2" stroke-linecap="round" stroke-linejoin="round"/>
</g>
<defs>
<filter id="filter0_d_2_864" x="0.631592" y="0.132507" width="29.2358" height="29.236" filterUnits="userSpaceOnUse" color-interpolation-filters="sRGB">
<feFlood flood-opacity="0" result="BackgroundImageFix"/>
<feColorMatrix in="SourceAlpha" type="matrix" values="0 0 0 0 0 0 0 0 0 0 0 0 0 0 0 0 0 0 127 0" result="hardAlpha"/>
<feOffset dy="1"/>
<feGaussianBlur stdDeviation="2.5"/>
<feColorMatrix type="matrix" values="0 0 0 0 0 0 0 0 0 0 0 0 0 0 0 0 0 0 0.1 0"/>
<feBlend mode="normal" in2="BackgroundImageFix" result="effect1_dropShadow_2_864"/>
<feBlend mode="normal" in="SourceGraphic" in2="effect1_dropShadow_2_864" result="shape"/>
</filter>
</defs>
</svg>
